<svg xmlns="http://www.w3.org/2000/svg" xmlns:xlink="http://www.w3.org/1999/xlink" viewBox="0 0 176 69"><defs><mask id="a" x="-1.53" y="-1.52" width="46.06" height="72.04" maskUnits="userSpaceOnUse"><path d="M21.6,0A.73.73,0,0,0,21,.51h0L0,68.29a.78.78,0,0,0,0,.14H0v0A.56.56,0,0,0,.56,69H21.45a.71.71,0,0,0,.67-.51h0L43,1a.52.52,0,0,0,0-.21h0v0A.73.73,0,0,0,42.33,0H21.6Z" style="fill:#fff;fill-rule:evenodd"/></mask><mask id="b" x="110.48" y="-1.52" width="45.05" height="72.04" maskUnits="userSpaceOnUse"><path d="M131.62,0a.72.72,0,0,0-.63.51h0L112,62.4a.75.75,0,0,0,.49.94h0L132.43,69a.7.7,0,0,0,.86-.48h0L154,1a.74.74,0,0,0-.63-1H131.62Z" style="fill:#fff;fill-rule:evenodd"/></mask><mask id="c" x="69.48" y="-1.52" width="47.05" height="72.04" maskUnits="userSpaceOnUse"><path d="M92.63,0A.67.67,0,0,0,92,.51h0L71,69H93.58a.73.73,0,0,0,.68-.51h0L115,1a.74.74,0,0,0-.63-1H92.63Z" style="fill:#fff;fill-rule:evenodd"/></mask><mask id="d" x="23.48" y="-1.52" width="49.04" height="72.04" maskUnits="userSpaceOnUse"><path d="M27.43,0,41.16,44.65H29.49l-2.1,6.85L25,59.31H45.66l2.83,9.19a.71.71,0,0,0,.67.51H71L50,.51A.72.72,0,0,0,49.32,0H27.43Z" style="fill:#fff;fill-rule:evenodd"/></mask><mask id="e" x="90.5" y="-1.52" width="46" height="72.04" maskUnits="userSpaceOnUse"><path d="M92.23,0A.45.45,0,0,0,92,.05h0c.19,0,.29.18.38.45h0l20.64,68a.7.7,0,0,0,.66.51h19a.7.7,0,0,0,.66-.52h0L135,62.86,116.07.51a.71.71,0,0,0-.62-.51H92.23Z" style="fill:#fff;fill-rule:evenodd"/></mask><mask id="f" x="129.48" y="-1.52" width="48.03" height="72.04" maskUnits="userSpaceOnUse"><path d="M131.23,0a.45.45,0,0,0-.23.05h0c.19,0,.3.18.38.45h0l20.83,68a.71.71,0,0,0,.67.51H175.3a.72.72,0,0,0,.7-.7h0v-.08a.57.57,0,0,0,0-.18h0L155.28.51a.72.72,0,0,0-.63-.51H131.23Z" style="fill:#fff;fill-rule:evenodd"/></mask></defs><g style="mask:url(#a)"><polygon points="-1.53 70.52 44.53 70.52 44.53 -1.52 -1.53 -1.52 -1.53 70.52" style="fill:#ffa316;fill-rule:evenodd"/></g><g style="mask:url(#b)"><polygon points="110.48 70.52 155.52 70.52 155.52 -1.52 110.48 -1.52 110.48 70.52" style="fill:#ffa316;fill-rule:evenodd"/></g><g style="mask:url(#c)"><polygon points="69.48 70.52 116.52 70.52 116.52 -1.52 69.48 -1.52 69.48 70.52" style="fill:#ffa316;fill-rule:evenodd"/></g><g style="mask:url(#d)"><polygon points="23.48 70.52 72.52 70.52 72.52 -1.52 23.48 -1.52 23.48 70.52" style="fill:#ffbe16;fill-rule:evenodd"/></g><g style="mask:url(#e)"><polygon points="90.5 70.52 136.5 70.52 136.5 -1.52 90.5 -1.52 90.5 70.52" style="fill:#ffbe16;fill-rule:evenodd"/></g><g style="mask:url(#f)"><polygon points="129.48 70.52 177.52 70.52 177.52 -1.52 129.48 -1.52 129.48 70.52" style="fill:#ffbe16;fill-rule:evenodd"/></g></svg>