<svg xmlns="http://www.w3.org/2000/svg" viewBox="0 0 358 66">
  <g>
        <path d="M84.791,1.883c-1.119,0.053-4.107,0.176-7.666,0.176c-3.335,0-5.848-0.094-7.664-0.176
		c-0.052,0.004-0.109,0.018-0.149,0.056c-0.04,0.038-0.061,0.091-0.061,0.146v0.441c0,0.099,0.071,0.184,0.169,0.199
		c2.999,0.486,4.24,0.687,4.24,7.828v47.372c0,7.141-1.241,7.342-4.24,7.828c-0.098,0.016-0.169,0.1-0.169,0.199v0.441
		c0,0.055,0.022,0.107,0.061,0.145c0.037,0.036,0.088,0.056,0.14,0.056h0.009c1.816-0.082,4.329-0.176,7.664-0.176
		c3.559,0,6.546,0.123,7.666,0.176c0.058,0.003,0.109-0.018,0.148-0.056c0.04-0.037,0.063-0.091,0.063-0.145v-0.441
		c0-0.099-0.071-0.184-0.169-0.199c-3-0.487-4.241-0.687-4.241-7.828V10.553c0-7.141,1.241-7.342,4.241-7.828
		c0.098-0.016,0.169-0.1,0.169-0.199V2.086c0-0.055-0.022-0.109-0.063-0.146C84.9,1.9,84.842,1.876,84.791,1.883"/>
        <path d="M193.745,1.883c-1.12,0.053-4.108,0.176-7.666,0.176c-3.337,0-5.848-0.094-7.665-0.176
		c-0.052-0.001-0.108,0.017-0.148,0.056c-0.041,0.038-0.063,0.091-0.063,0.146v0.441c0,0.099,0.072,0.184,0.169,0.199
		c3,0.486,4.242,0.687,4.242,7.828V30.38c-5.756,0.085-11.562,0.085-17.176,0.085c-5.51,0-10.72,0-16.031-0.085V10.553
		c0-7.141,1.242-7.342,4.242-7.828c0.098-0.016,0.169-0.1,0.169-0.199V2.086c0-0.055-0.023-0.109-0.062-0.146
		c-0.04-0.039-0.1-0.064-0.149-0.056c-1.12,0.053-4.108,0.176-7.666,0.176c-3.335,0-5.848-0.094-7.665-0.176
		c-0.052,0.004-0.109,0.018-0.149,0.056c-0.039,0.038-0.061,0.091-0.061,0.146v0.441c0,0.099,0.072,0.184,0.17,0.199
		c2.999,0.486,4.24,0.687,4.24,7.828v47.372c0,7.141-1.241,7.342-4.24,7.828c-0.098,0.016-0.17,0.1-0.17,0.199v0.441
		c0,0.055,0.023,0.107,0.061,0.145c0.04,0.038,0.094,0.055,0.149,0.056c1.817-0.082,4.329-0.176,7.665-0.176
		c3.558,0,6.546,0.123,7.666,0.176c0.057,0.003,0.109-0.018,0.149-0.056c0.039-0.037,0.062-0.091,0.062-0.145v-0.441
		c0-0.099-0.071-0.184-0.169-0.199c-3-0.487-4.242-0.687-4.242-7.828V33.512c5.311-0.085,10.52-0.085,16.031-0.085
		c5.614,0,11.42,0,17.176,0.085v24.414c0,7.141-1.241,7.342-4.242,7.828c-0.097,0.016-0.169,0.1-0.169,0.199v0.441
		c0,0.055,0.022,0.107,0.063,0.145c0.037,0.036,0.088,0.056,0.139,0.056h0.008c1.816-0.082,4.328-0.176,7.665-0.176
		c3.558,0,6.546,0.123,7.666,0.176c0.037,0.003,0.109-0.018,0.149-0.056c0.039-0.037,0.062-0.091,0.062-0.145v-0.441
		c0-0.099-0.073-0.184-0.169-0.199c-3-0.487-4.242-0.687-4.242-7.828V10.553c0-7.141,1.241-7.342,4.242-7.828
		c0.097-0.016,0.169-0.1,0.169-0.199V2.086c0-0.055-0.023-0.109-0.062-0.146C193.853,1.9,193.775,1.876,193.745,1.883"/>
        <path d="M135.258,1.865h-0.003c-5.91,0.108-26.681,0.427-45.86-0.017h-0.004c-0.093,0-0.175,0.063-0.196,0.154
		c-0.397,1.621-0.795,3.004-1.182,4.342c-0.472,1.637-0.918,3.184-1.241,4.803c-0.011,0.059,0.004,0.121,0.042,0.168
		c0.038,0.046,0.096,0.073,0.156,0.073h0.441c0.079,0,0.15-0.045,0.184-0.116c2.581-5.507,6.719-5.534,20.363-5.534v52.154
		c0,7.146-1.243,7.348-4.245,7.834c-0.098,0.016-0.169,0.1-0.169,0.2v0.441c0,0.055,0.022,0.108,0.061,0.146
		c0.038,0.036,0.088,0.055,0.14,0.055h0.009c1.796-0.082,4.29-0.175,7.673-0.175c3.603,0,6.564,0.123,7.671,0.175
		c0.058,0.002,0.109-0.017,0.149-0.055c0.04-0.038,0.062-0.091,0.062-0.146v-0.441c0-0.1-0.071-0.184-0.169-0.2
		c-3.002-0.487-4.245-0.688-4.245-7.834V5.737c15.684,0.005,17.785,0.627,17.785,3.065c0,0.44-0.093,0.961-0.171,1.275
		c-0.015,0.06-0.001,0.124,0.035,0.173c0.04,0.049,0.098,0.078,0.16,0.078h0.529c0.098,0,0.181-0.07,0.199-0.166
		c0.252-1.385,1.253-5.632,2.018-8.034c0.02-0.061,0.008-0.13-0.031-0.182C135.383,1.895,135.322,1.865,135.258,1.865"/>
        <path d="M231.966,38.953h-11.245c-2.76,0-5.373,0-8.092-0.08l9.384-25.402l0.195-0.525L231.966,38.953z M252.748,65.795
		c-2.299-0.302-3.223-0.704-4.141-2.467L225.144,0.709c-0.028-0.079-0.103-0.13-0.19-0.13h-0.88c-0.085,0-0.159,0.052-0.189,0.13
		l-19.937,53.018c-3.706,9.826-5.028,10.982-9.559,12.048c-0.092,0.021-0.156,0.103-0.156,0.196v0.441
		c0,0.055,0.022,0.109,0.061,0.146c0.042,0.038,0.09,0.051,0.151,0.056l0.874-0.043c1.405-0.071,2.617-0.133,5.114-0.133
		c3.887,0,7.025,0.124,8.195,0.177c0.061,0.002,0.108-0.017,0.15-0.056c0.039-0.038,0.061-0.091,0.061-0.146v-0.441
		c0-0.103-0.076-0.189-0.178-0.201c-2.61-0.307-3.879-1.511-3.879-3.68c0-1.658,0.703-3.751,1.487-5.929l5.246-14.163
		c3.038-0.085,6.036-0.085,9.208-0.085h12.359l7.689,20.488c0.041,0.175,0.085,0.356,0.085,0.507c0.014,1.79-1.188,2.733-3.67,2.885
		c-0.106,0.007-0.191,0.096-0.19,0.203l0.004,0.442c0,0.055,0.023,0.106,0.064,0.145c0.037,0.035,0.086,0.055,0.138,0.055h0.01
		c2.591-0.118,5.156-0.176,7.84-0.176c3.599,0,6.561,0.123,7.667,0.176c0.054,0.007,0.109-0.017,0.15-0.056
		c0.039-0.038,0.061-0.091,0.061-0.147l-0.002-0.441C252.923,65.893,252.849,65.807,252.748,65.795"/>
        <path d="M338.133,38.946h-11.247c-2.76,0-5.374,0-8.091-0.08l9.578-25.926L338.133,38.946z M359.089,65.987
		c0-0.101-0.075-0.186-0.175-0.199c-2.3-0.303-3.223-0.705-4.14-2.467L331.312,0.703c-0.03-0.079-0.105-0.131-0.19-0.131h-0.881
		c-0.085,0-0.16,0.052-0.19,0.131l-19.938,53.018c-2.866,7.602-4.34,10.006-6.839,11.176c-0.282,0.112-1.762,0.632-3.073-0.036
		c-1.448-0.926-2.869-2.631-5.023-5.213l-23.878-28.267c1.532-1.612,2.981-3.137,4.352-4.583
		c16.844-17.752,21.927-23.11,26.909-24.073c0.095-0.018,0.164-0.101,0.164-0.198V2.085c0-0.055-0.023-0.108-0.062-0.145
		c-0.04-0.039-0.12-0.064-0.149-0.056c-1.803,0.085-4.809,0.176-7.842,0.176c-3.322,0-5.395-0.094-7.225-0.176
		c-0.05-0.001-0.107,0.017-0.148,0.056c-0.04,0.038-0.063,0.091-0.063,0.145v0.442c0,0.104,0.08,0.191,0.185,0.201
		c1.984,0.18,2.374,0.709,2.374,1.562c0,2.152-3.992,6.573-11.239,14.598L266.203,32.61V10.553c0-7.142,1.243-7.342,4.241-7.828
		c0.097-0.016,0.17-0.1,0.17-0.199V2.085c0-0.055-0.023-0.108-0.062-0.145c-0.04-0.039-0.113-0.064-0.149-0.056
		c-1.12,0.053-4.109,0.176-7.666,0.176c-3.334,0-5.847-0.094-7.664-0.176c-0.057-0.001-0.109,0.017-0.149,0.056
		c-0.039,0.038-0.062,0.091-0.062,0.145v0.442c0,0.099,0.073,0.184,0.169,0.199c2.999,0.486,4.239,0.686,4.239,7.828v47.372
		c0,7.141-1.241,7.342-4.239,7.828c-0.097,0.016-0.169,0.101-0.169,0.2v0.44c0,0.055,0.023,0.108,0.062,0.146
		c0.04,0.038,0.085,0.052,0.149,0.056c1.817-0.082,4.33-0.176,7.664-0.176c3.557,0,6.546,0.123,7.666,0.176
		c0.043,0.002,0.109-0.018,0.149-0.056c0.039-0.037,0.062-0.091,0.062-0.146v-0.44c0-0.099-0.073-0.184-0.17-0.2
		c-2.998-0.486-4.241-0.687-4.241-7.828V35.553l19.93,24.175c0.453,0.565,0.905,1.095,1.328,1.592
		c1.158,1.358,2.157,2.531,2.157,3.311c0,0.448-0.282,0.931-2.375,1.122c-0.106,0.01-0.184,0.097-0.184,0.202v0.44
		c0,0.055,0.024,0.108,0.063,0.146c0.04,0.038,0.092,0.052,0.149,0.056c1.675-0.076,4.301-0.176,7.754-0.176
		c2.128,0,4.593,0.046,6.764,0.124c0.015,0.004,0.028,0.002,0.044,0.003c1.253-0.062,2.476-0.115,4.766-0.115
		c3.898,0,7.03,0.123,8.196,0.175c0.055-0.001,0.109-0.017,0.149-0.055c0.039-0.038,0.061-0.091,0.061-0.146v-0.441
		c0-0.103-0.076-0.189-0.178-0.201c-2.61-0.307-3.879-1.511-3.879-3.681c0-1.654,0.702-3.749,1.486-5.928l5.246-14.163
		c3.038-0.084,6.035-0.084,9.207-0.084h12.359l7.69,20.493c0.043,0.181,0.084,0.352,0.085,0.5c0.012,1.79-1.188,2.734-3.671,2.886
		c-0.106,0.007-0.19,0.096-0.19,0.203l0.004,0.441c0,0.055,0.023,0.107,0.064,0.145c0.037,0.036,0.086,0.055,0.138,0.055h0.01
		c2.591-0.118,5.156-0.176,7.839-0.176c3.6,0,6.562,0.123,7.668,0.176c0.056,0.004,0.109-0.017,0.15-0.056
		c0.04-0.038,0.062-0.091,0.061-0.147L359.089,65.987z"/>
        <path d="M60.163,2.021v59.624c0,0-59.624-59.794-59.624-59.624H60.163z"/>
      </g>
</svg>


